<?xml version="1.0" encoding="utf-8"?>
<!-- Generator: Adobe Illustrator 23.0.1, SVG Export Plug-In . SVG Version: 6.00 Build 0)  -->
<svg version="1.1" id="Layer_1" xmlns="http://www.w3.org/2000/svg" xmlns:xlink="http://www.w3.org/1999/xlink" x="0px" y="0px"
	 viewBox="0 0 16 16" style="enable-background:new 0 0 16 16;" xml:space="preserve">
<style type="text/css">
	.st0{fill:#FFFFFF;}
</style>
<path class="st0" d="M15,14c0,0,1,0,1-1s-1-4-5-4s-5,3-5,4s1,1,1,1H15z M7,13C7,13,7,13,7,13c0-0.3,0.1-1,0.7-1.7
	C8.3,10.6,9.3,10,11,10c1.7,0,2.7,0.6,3.2,1.3C14.8,12,15,12.7,15,13l0,0c0,0,0,0,0,0H7z M11,7c1.1,0,2-0.9,2-2s-0.9-2-2-2
	S9,3.9,9,5S9.9,7,11,7z M14,5c0,1.7-1.3,3-3,3S8,6.7,8,5s1.3-3,3-3S14,3.3,14,5z M6.9,9.3C6.5,9.2,6.1,9.1,5.7,9C5.5,9,5.2,9,5,9
	c-4,0-5,3-5,4c0,0.7,0.3,1,1,1h4.2C5.1,13.7,5,13.3,5,13c0-1,0.4-2,1.1-2.9C6.3,9.8,6.6,9.5,6.9,9.3z M4.9,10C4.3,10.9,4,11.9,4,13
	H1c0-0.3,0.2-1,0.8-1.7C2.3,10.6,3.3,10,4.9,10L4.9,10z M1.5,5.5c0-1.7,1.3-3,3-3s3,1.3,3,3s-1.3,3-3,3S1.5,7.2,1.5,5.5z M4.5,3.5
	c-1.1,0-2,0.9-2,2s0.9,2,2,2s2-0.9,2-2S5.6,3.5,4.5,3.5z"/>
</svg>
